<svg width="93" height="101" viewBox="0 0 93 101" fill="none" xmlns="http://www.w3.org/2000/svg">
<path fill-rule="evenodd" clip-rule="evenodd" d="M46.5 94.6875C45.7292 94.6875 44.99 94.355 44.445 93.7631C43.8999 93.1711 43.5938 92.3683 43.5938 91.5312L43.5938 17.0879L25.3076 36.9534C24.7619 37.546 24.0218 37.879 23.25 37.879C22.4782 37.879 21.7381 37.546 21.1924 36.9534C20.6467 36.3607 20.3401 35.5569 20.3401 34.7187C20.3401 33.8806 20.6467 33.0768 21.1924 32.4841L44.4424 7.23411C44.7123 6.94018 45.0331 6.70698 45.3861 6.54787C45.7392 6.38875 46.1177 6.30685 46.5 6.30685C46.8823 6.30685 47.2608 6.38875 47.6139 6.54787C47.967 6.70698 48.2877 6.94018 48.5576 7.23411L71.8076 32.4841C72.3533 33.0768 72.6599 33.8806 72.6599 34.7187C72.6599 35.5569 72.3533 36.3607 71.8076 36.9534C71.2619 37.546 70.5218 37.879 69.75 37.879C68.9782 37.879 68.2381 37.546 67.6924 36.9534L49.4063 17.0879L49.4063 91.5312C49.4063 92.3683 49.1001 93.1711 48.555 93.7631C48.01 94.355 47.2708 94.6875 46.5 94.6875V94.6875Z" fill="#36B37E"/>
</svg>
