<svg width="43" height="43" viewBox="0 0 43 43" fill="none" xmlns="http://www.w3.org/2000/svg">
<path d="M21.5 3.58334C11.5921 3.58334 3.58333 11.5921 3.58333 21.5C3.58333 31.4079 11.5921 39.4167 21.5 39.4167C31.4079 39.4167 39.4167 31.4079 39.4167 21.5C39.4167 11.5921 31.4079 3.58334 21.5 3.58334ZM29.2042 29.2042C28.5054 29.9029 27.3767 29.9029 26.6779 29.2042L21.5 24.0263L16.3221 29.2042C15.6233 29.9029 14.4946 29.9029 13.7958 29.2042C13.0971 28.5054 13.0971 27.3767 13.7958 26.6779L18.9737 21.5L13.7958 16.3221C13.0971 15.6233 13.0971 14.4946 13.7958 13.7958C14.4946 13.0971 15.6233 13.0971 16.3221 13.7958L21.5 18.9738L26.6779 13.7958C27.3767 13.0971 28.5054 13.0971 29.2042 13.7958C29.9029 14.4946 29.9029 15.6233 29.2042 16.3221L24.0262 21.5L29.2042 26.6779C29.885 27.3588 29.885 28.5054 29.2042 29.2042Z" fill="#FF5630"/>
</svg>
