<svg width="43" height="43" viewBox="0 0 43 43" fill="none" xmlns="http://www.w3.org/2000/svg">
<path d="M21.5 3.58334C11.61 3.58334 3.58334 11.61 3.58334 21.5C3.58334 31.39 11.61 39.4167 21.5 39.4167C31.39 39.4167 39.4167 31.39 39.4167 21.5C39.4167 11.61 31.39 3.58334 21.5 3.58334ZM16.6446 29.1863L10.2125 22.7542C9.51376 22.0554 9.51376 20.9267 10.2125 20.2279C10.9113 19.5292 12.04 19.5292 12.7388 20.2279L17.9167 25.3879L30.2434 13.0613C30.9421 12.3625 32.0709 12.3625 32.7696 13.0613C33.4684 13.76 33.4684 14.8888 32.7696 15.5875L19.1708 29.1863C18.49 29.885 17.3433 29.885 16.6446 29.1863Z" fill="#36B37E"/>
</svg>
